<svg width="32" height="32" viewBox="0 0 32 32" fill="none" xmlns="http://www.w3.org/2000/svg">
<g clip-path="url(#clip0_107_6)">
<mask id="mask0_107_6" style="mask-type:alpha" maskUnits="userSpaceOnUse" x="0" y="0" width="32" height="32">
<rect width="32" height="32" rx="5.25" fill="#C4C4C4"/>
</mask>
<g mask="url(#mask0_107_6)">
<rect width="32" height="32" fill="#F9EFE7"/>
<path d="M4.97836 21.125V11.255H9.76636C10.8677 11.255 11.7124 11.4837 12.3004 11.941C12.8977 12.3983 13.1964 13.019 13.1964 13.803C13.1964 14.3817 13.0237 14.8763 12.6784 15.287C12.3424 15.6977 11.8804 15.9777 11.2924 16.127V15.903C11.9924 16.0243 12.529 16.295 12.9024 16.715C13.285 17.1257 13.4764 17.6623 13.4764 18.325C13.4764 19.193 13.159 19.879 12.5244 20.383C11.8897 20.8777 11.0217 21.125 9.92036 21.125H4.97836ZM7.45636 19.235H9.58436C10.0697 19.235 10.429 19.1463 10.6624 18.969C10.905 18.7917 11.0264 18.5163 11.0264 18.143C11.0264 17.7603 10.905 17.485 10.6624 17.317C10.429 17.149 10.0697 17.065 9.58436 17.065H7.45636V19.235ZM7.45636 15.175H9.29036C9.78503 15.175 10.1444 15.091 10.3684 14.923C10.6017 14.755 10.7184 14.4983 10.7184 14.153C10.7184 13.8077 10.6017 13.5557 10.3684 13.397C10.1444 13.229 9.78503 13.145 9.29036 13.145H7.45636V15.175ZM14.7948 21.125V11.255H17.3848V15.483H17.4128L21.1928 11.255H24.2168L19.4288 16.449V15.427L24.4828 21.125H21.3608L17.4128 16.673H17.3848V21.125H14.7948Z" fill="black"/>
<path d="M24.3442 21.125V18.577H26.9342V21.125H24.3442Z" fill="#20ADFD"/>
</g>
</g>
<defs>
<clipPath id="clip0_107_6">
<rect width="32" height="32" fill="white"/>
</clipPath>
</defs>
</svg>
